<?xml version="1.0" encoding="UTF-8"?>
<svg xmlns="http://www.w3.org/2000/svg" id="Layer_1" data-name="Layer 1" viewBox="0 0 24 24">
  <path fill="#e5e5e5" d="m4,4c1.103,0,2-.897,2-2s-.897-2-2-2-2,.897-2,2,.897,2,2,2Zm0-3c.552,0,1,.449,1,1s-.448,1-1,1-1-.449-1-1,.448-1,1-1Zm5,4c1.103,0,2-.897,2-2s-.897-2-2-2-2,.897-2,2,.897,2,2,2Zm0-3c.552,0,1,.449,1,1s-.448,1-1,1-1-.449-1-1,.448-1,1-1Zm5,2c1.103,0,2-.897,2-2s-.897-2-2-2-2,.897-2,2,.897,2,2,2Zm0-3c.552,0,1,.449,1,1s-.448,1-1,1-1-.449-1-1,.448-1,1-1Zm-7.938,7.398c.287-1.39,1.545-2.398,2.989-2.398s2.7,1.009,2.989,2.398c.057.27-.069.602-.49.602-.231,0-.439-.162-.488-.398-.193-.928-1.039-1.602-2.011-1.602s-1.818.673-2.011,1.602c-.056.271-.324.44-.591.388-.271-.056-.444-.321-.388-.591Zm7.938-3.398c1.444,0,2.702,1.009,2.989,2.398.057.271-.114.611-.49.602-.231-.006-.439-.163-.488-.398-.192-.928-1.038-1.602-2.011-1.602-.28,0-.552.054-.808.161-.251.107-.548-.014-.654-.269-.105-.255.015-.547.27-.654.378-.158.779-.238,1.192-.238ZM1.011,7.398c.287-1.39,1.545-2.398,2.989-2.398.413,0,.814.08,1.192.238.255.106.375.399.27.654-.106.255-.403.375-.654.269-.256-.106-.527-.161-.808-.161-.973,0-1.818.673-2.011,1.602-.049.236-.259.431-.488.398-.405-.058-.547-.331-.49-.602Zm22.17,2.256c-.496-.452-1.141-.674-1.809-.652-.67.032-1.288.322-1.739.818l-3.732,4.102c-.314-1.108-1.335-1.922-2.543-1.922H3.5c-1.93,0-3.5,1.57-3.5,3.5v5c0,1.93,1.57,3.5,3.5,3.5h5.965c2.707,0,5.292-1.159,7.093-3.181l6.806-7.639c.911-1.022.829-2.604-.183-3.526Zm-.563,2.861l-6.806,7.639c-1.611,1.809-3.925,2.846-6.347,2.846H3.5c-1.379,0-2.5-1.122-2.5-2.5v-5c0-1.378,1.121-2.5,2.5-2.5h9.857c.905,0,1.643.737,1.643,1.642,0,.812-.606,1.511-1.398,1.624l-6.161.737c-.274.033-.47.282-.437.556.032.274.282.464.556.437l6.173-.739c1.021-.146,1.844-.878,2.145-1.824l4.496-4.94c.271-.298.643-.473,1.046-.492.398-.018.789.12,1.088.393.609.555.658,1.506.11,2.122Z"/>
</svg>
