<svg xmlns="http://www.w3.org/2000/svg" id="Layer_1" data-name="Layer 1" viewBox="0 0 24 24" width="512" height="512"><path fill="#E5E5E5" d="M5.5,5c1.378,0,2.5-1.121,2.5-2.5S6.878,0,5.5,0,3,1.121,3,2.5s1.122,2.5,2.5,2.5Zm0-4c.827,0,1.5,.673,1.5,1.5s-.673,1.5-1.5,1.5-1.5-.673-1.5-1.5,.673-1.5,1.5-1.5Zm13,4c1.378,0,2.5-1.121,2.5-2.5s-1.122-2.5-2.5-2.5-2.5,1.121-2.5,2.5,1.122,2.5,2.5,2.5Zm0-4c.827,0,1.5,.673,1.5,1.5s-.673,1.5-1.5,1.5-1.5-.673-1.5-1.5,.673-1.5,1.5-1.5ZM2.409,18.638l-1.429,5c-.063,.22-.263,.362-.48,.362-.046,0-.092-.006-.138-.02-.266-.075-.419-.353-.344-.618l1.429-5c.076-.267,.354-.421,.618-.343,.266,.075,.419,.353,.344,.618Zm21.511-6.744l-.864-3.169c-.326-1.579-1.732-2.725-3.344-2.725-1.201,0-2.327,.641-2.938,1.673l-1.229,2.073c-.367-.451-.919-.746-1.545-.746h-4c-.626,0-1.178,.295-1.545,.746l-1.229-2.073c-.611-1.032-1.737-1.673-2.938-1.673-1.612,0-3.019,1.146-3.337,2.694L.073,11.924c-.293,1.419,.333,2.892,1.551,3.663l3.376,2.2v5.713c0,.276,.224,.5,.5,.5s.5-.224,.5-.5v-5.983c0-.169-.085-.326-.227-.419l-1.742-1.136,2.253-7.884c.025,.037,.059,.066,.082,.104l1.64,2.765c0,.018-.005,.034-.005,.052v4c0,1.103,.897,2,2,2h4c1.103,0,2-.897,2-2v-4c0-.018-.005-.034-.005-.052l1.64-2.765c.023-.039,.057-.068,.082-.105l2.252,7.884-1.742,1.135c-.142,.093-.227,.25-.227,.419v5.983c0,.276,.224,.5,.5,.5s.5-.224,.5-.5v-5.713l3.371-2.196c1.224-.774,1.849-2.248,1.549-3.697ZM2.164,14.745c-.875-.553-1.322-1.605-1.12-2.589l.878-3.229c.23-1.116,1.225-1.927,2.365-1.927,.417,0,.82,.112,1.174,.309L3.154,15.39l-.989-.645Zm12.835,.255c0,.552-.449,1-1,1h-4c-.551,0-1-.448-1-1v-4c0-.552,.449-1,1-1h4c.551,0,1,.448,1,1v4Zm6.831-.251l-.984,.642-2.309-8.081c.355-.197,.758-.309,1.174-.309,1.14,0,2.135,.811,2.372,1.957l.864,3.169c.209,1.014-.238,2.066-1.118,2.623Zm1.807,9.231c-.046,.014-.092,.02-.138,.02-.217,0-.417-.143-.48-.362l-1.428-5c-.076-.266,.078-.543,.344-.618,.264-.077,.542,.077,.618,.343l1.428,5c.076,.266-.078,.543-.344,.618Z"/></svg>
