<?xml version="1.0" encoding="UTF-8"?>
<svg xmlns="http://www.w3.org/2000/svg" id="Layer_1" data-name="Layer 1" viewBox="0 0 24 24">
  <path fill="#E5E5E5" d="m22.802.703c-.274-.44-.747-.703-1.265-.703h-4.025c-1.342,0-2.545.748-3.139,1.952l-2.001,4.057c-.123-.005-.247-.008-.371-.008s-.248.003-.371.008l-2.001-4.057c-.594-1.204-1.796-1.952-3.139-1.952H2.463c-.519,0-.991.263-1.265.703-.273.44-.3.98-.071,1.445l3.674,7.455c-1.131,1.505-1.802,3.374-1.802,5.396,0,4.962,4.038,9,9,9s9-4.038,9-9c0-2.023-.671-3.892-1.802-5.396l3.674-7.455c.229-.465.203-1.005-.071-1.445ZM2.024,1.706c-.108-.22-.02-.406.023-.475.043-.069.17-.231.416-.231h4.025c.958,0,1.818.534,2.242,1.394l1.836,3.721c-1.973.317-3.734,1.278-5.059,2.659L2.024,1.706Zm9.976,21.294c-4.411,0-8-3.589-8-8,0-4.176,3.744-8,8-8s8,3.825,8,8c0,4.411-3.589,8-8,8ZM21.976,1.706l-3.484,7.068c-1.325-1.381-3.086-2.342-5.059-2.659l1.836-3.721c.424-.86,1.284-1.394,2.242-1.394h4.025c.246,0,.373.162.416.231.043.069.132.255.023.475Zm-6.082,11.294h-2.025l-.536-1.961c-.157-.601-.702-1.027-1.342-1.039-.622.012-1.167.438-1.322,1.034l-.538,1.966h-2.025c-.792,0-1.283.635-1.283,1.224,0,.545.331,1.068.843,1.352l1.331.829-.604,1.646c-.222.604-.025,1.27.489,1.657.257.194.564.291.872.291.313,0,.626-.101.886-.302l1.361-1.052,1.361,1.052c.515.398,1.238.402,1.758.011.514-.387.71-1.053.489-1.657l-.604-1.646,1.309-.816c.533-.296.864-.819.864-1.365,0-.589-.491-1.224-1.283-1.224Zm-.088,1.728l-1.676,1.044c-.201.125-.287.374-.205.597l.744,2.028c.067.184.005.395-.152.513-.162.121-.386.119-.545-.003l-1.667-1.289c-.18-.14-.432-.14-.611,0l-1.667,1.289c-.161.123-.385.125-.545.003-.157-.118-.219-.329-.152-.513l.744-2.028c.082-.223-.004-.472-.205-.597l-1.697-1.057c-.174-.097-.35-.286-.35-.491,0-.06.067-.224.283-.224h2.407c.226,0,.423-.151.482-.368l.64-2.34c.044-.168.198-.289.356-.292.176.003.331.124.376.297l.638,2.334c.06.217.257.368.482.368h2.407c.216,0,.283.164.283.224,0,.205-.176.394-.371.503Z"/>
</svg>
