<svg xmlns="http://www.w3.org/2000/svg" id="Layer_1" data-name="Layer 1" viewBox="0 0 24 24" width="512" height="512">
  <path fill="#FFFFFF" d="M24,15.5c0,.276-.224,.5-.5,.5h-1.167c-.752,0-1.498,.248-2.1,.7l-6.092,4.568c-.628,.488-1.383,.733-2.14,.733s-1.518-.246-2.15-.739l-6.085-4.562c-.602-.452-1.348-.7-2.1-.7H.5c-.276,0-.5-.224-.5-.5s.224-.5,.5-.5H1.667c.968,0,1.926,.319,2.699,.899l6.092,4.568c.91,.71,2.173,.707,3.077,.006l6.099-4.574c.215-.161,.444-.301,.684-.421l-7.279-5.458-1.311,1.255c-.464,.464-1.098,.725-1.759,.725-.853,0-1.604-.447-2.039-1.051-.703-.976-.555-2.392,.347-3.293l3.029-2.852-.986-.898c-1.066-.97-2.731-1.143-3.936-.539l-2.315,1.158c-.622,.311-1.318,.475-2.013,.475H.5c-.276,0-.5-.224-.5-.5s.224-.5,.5-.5h1.556c.54,0,1.082-.128,1.565-.369l2.315-1.158c.617-.31,1.31-.473,2.003-.473,1.155,0,2.227,.415,3.054,1.167l1.042,.95,.955-.899c1.339-1.26,3.437-1.565,5.073-.745l2.315,1.158c.483,.241,1.025,.369,1.565,.369h1.556c.276,0,.5,.224,.5,.5s-.224,.5-.5,.5h-1.556c-.694,0-1.391-.164-2.013-.475l-2.315-1.158c-1.272-.638-2.901-.4-3.94,.579l-4.703,4.428c-.548,.548-.651,1.408-.231,1.991,.267,.37,.659,.594,1.105,.63,.436,.032,.87-.122,1.182-.435l4.165-3.987c.199-.191,.516-.184,.707,.016,.19,.199,.184,.516-.016,.707l-2.113,2.023,7.691,5.768c.286-.057,.578-.087,.871-.087h1.167c.276,0,.5,.224,.5,.5Z"/>
</svg>
