<?xml version="1.0" encoding="UTF-8"?>
<svg xmlns="http://www.w3.org/2000/svg" id="Layer_1" data-name="Layer 1" viewBox="0 0 24 24">
  <path fill="#e5e5e5" d="m24,5.5v10.101c0,2.003-.78,3.887-2.197,5.303l-2.95,2.95c-.098.098-.226.146-.354.146s-.256-.049-.354-.146c-.195-.195-.195-.512,0-.707l2.95-2.95c1.228-1.228,1.904-2.86,1.904-4.596V5.5c0-.827-.673-1.5-1.5-1.5s-1.5.673-1.5,1.5c0,0-.002,8.045-.005,8.067-.015.547-.208,1.091-.579,1.533l-2.638,2.746c-.098.102-.229.153-.36.153-.125,0-.25-.046-.347-.14-.199-.191-.205-.508-.014-.707l2.616-2.721c.218-.26.328-.591.328-.924,0-.003,0-.005,0-.008v-.038c-.01-.345-.137-.691-.382-.965-.55-.613-1.497-.666-2.113-.116l-2.729,2.512c-.516.474-.929,1.033-1.231,1.663.297.753.456,1.562.456,2.385v4.559c0,.276-.224.5-.5.5s-.5-.224-.5-.5v-4.559c0-1.534-.647-3.009-1.776-4.047l-2.734-2.516c-.609-.546-1.557-.494-2.108.12-.494.551-.507,1.394-.032,1.96l2.593,2.695c.191.199.185.516-.014.707-.2.191-.516.185-.707-.014l-2.616-2.721c-.375-.446-.573-.985-.597-1.526-.006-.032-.01-8.1-.01-8.1,0-.827-.673-1.5-1.5-1.5s-1.5.673-1.5,1.5v10.101c0,1.736.676,3.369,1.904,4.596l2.95,2.95c.195.195.195.512,0,.707-.098.098-.226.146-.354.146s-.256-.049-.354-.146l-2.95-2.95c-1.417-1.417-2.197-3.3-2.197-5.303V5.5c0-1.378,1.122-2.5,2.5-2.5s2.5,1.122,2.5,2.5v5.998c.933-.699,2.262-.668,3.162.138l2.739,2.521c.426.392.794.838,1.098,1.321.305-.485.673-.927,1.1-1.321l2.734-2.516c.904-.81,2.234-.842,3.167-.143v-5.998c0-1.378,1.122-2.5,2.5-2.5s2.5,1.122,2.5,2.5ZM7,2.93c0-1.616,1.233-2.93,2.75-2.93.962,0,1.765.415,2.25,1.09.485-.675,1.288-1.09,2.25-1.09,1.517,0,2.75,1.314,2.75,2.93,0,2.115-2.549,4.708-3.896,5.783-.325.259-.714.388-1.104.388s-.778-.129-1.103-.388c-1.348-1.075-3.897-3.667-3.897-5.783Zm1,0c0,1.512,2.059,3.835,3.521,5,.282.226.677.226.959,0,1.461-1.166,3.52-3.488,3.52-5,0-1.064-.785-1.93-1.75-1.93-1.03,0-1.75.703-1.75,1.709,0,.276-.224.5-.5.5s-.5-.224-.5-.5c0-1.006-.72-1.709-1.75-1.709-.965,0-1.75.866-1.75,1.93Z"/>
</svg>
